HIERARCHY
ROOT Spine
{
    OFFSET 0.0 0.0 -0.0
    CHANNELS 6 Xposition Yposition Zposition Zrotation Xrotation Yrotation
    JOINT ShoulderCenter
    {
        OFFSET 0.0 39.29853439331055 0.0
        CHANNELS 3 Zrotation Xrotation Yrotation
        JOINT LeftShoulder
        {
            OFFSET 21.754745483398438 0.0 0.0
            CHANNELS 3 Zrotation Xrotation Yrotation
            JOINT LeftElbow
            {
                OFFSET 29.95451545715332 0.0 0.0
                CHANNELS 3 Zrotation Xrotation Yrotation
                JOINT LeftHand
                {
                    OFFSET 32.910804748535156 0.0 0.0
                    CHANNELS 3 Zrotation Xrotation Yrotation
                    End Site
                    {
                        OFFSET 13.164321899414062 0.0 0.0
                    }
                }
            }
        }
        JOINT RightShoulder
        {
            OFFSET -21.754745483398438 0.0 0.0
            CHANNELS 3 Zrotation Xrotation Yrotation
            JOINT RightElbow
            {
                OFFSET -29.95451545715332 0.0 0.0
                CHANNELS 3 Zrotation Xrotation Yrotation
                JOINT RightHand
                {
                    OFFSET -32.910804748535156 0.0 0.0
                    CHANNELS 3 Zrotation Xrotation Yrotation
                    End Site
                    {
                        OFFSET -13.164321899414062 0.0 0.0
                    }
                }
            }
        }
        End Site
        {
            OFFSET 0.0 15.719412803649902 0.0
        }
    }
    JOINT LeftHip
    {
        OFFSET 16.641321008804102 -16.641321008804102 0.0
        CHANNELS 3 Zrotation Xrotation Yrotation
        JOINT LeftKnee
        {
            OFFSET 0.0 -42.358497619628906 0.0
            CHANNELS 3 Zrotation Xrotation Yrotation
            JOINT LeftFoot
            {
                OFFSET 0.0 -47.91651916503906 0.0
                CHANNELS 3 Zrotation Xrotation Yrotation
                End Site
                {
                    OFFSET 0.0 0.0 19.166606903076172
                }
            }
        }
    }
    JOINT RightHip
    {
        OFFSET -16.641321008804102 -16.641321008804102 0.0
        CHANNELS 3 Zrotation Xrotation Yrotation
        JOINT RightKnee
        {
            OFFSET 0.0 -42.358497619628906 0.0
            CHANNELS 3 Zrotation Xrotation Yrotation
            JOINT RightFoot
            {
                OFFSET 0.0 -47.91651916503906 0.0
                CHANNELS 3 Zrotation Xrotation Yrotation
                End Site
                {
                    OFFSET 0.0 0.0 19.166606903076172
                }
            }
        }
    }
}
MOTION
Frames: 6
Frame Time: 0.03333333333333333
-103.69999694824219 11.800000190734863 -34.79999923706055 -2.7819964049316788 6.413091152151001 15.336668849187744 -1.6494136514740323e-08 -6.994424977892425e-07 14.17157261166648 88.3625324032189 31.089123891241144 178.9030312499139 2.282421821819903e-06 1.7980125023114915e-06 29.209092932592466 -6.361109362927033e-15 -3.531125038440127e-31 6.361109362927033e-15 -98.80754110858182 20.766986152139186 -173.79521287437845 1.9919254123306213e-06 1.4023696872723539e-06 -39.66765572462562 0.0 0.0 0.0 0.04780760798484034 -15.066961467283612 18.789591257375303 15.110196860288287 31.11144452169932 -76.31182914701155 0.0 0.0 -1.987846675914698e-15 5.424114538827465 -31.67375155595663 -33.45188166463801 -13.602997969462205 18.98752666429691 35.55488978029972 0.0 0.0 2.130723155746067e-15
-103.4000015258789 11.90000057220459 -37.400001525878906 -3.2286544996885738 7.0054741745216305 16.733926619752655 -3.805156291012796e-08 2.988968760802043e-07 13.646142551884292 87.8279751912971 27.419190022857766 179.92481853180232 -3.483192244208978e-07 7.573590197557287e-07 31.60862367239162 -1.7655625192200634e-31 6.361109362927033e-15 3.1805546814635164e-15 -98.85763901608833 22.0802518813953 -173.6828489803085 9.96930205569351e-07 1.7857653427395065e-06 -39.37219417168519 -3.1805546814635176e-15 0.0 0.0 -0.9699976047959608 -13.456176571422853 13.559915905102468 11.11084491082095 26.371422936029756 -63.80657503624523 7.58640144977371e-33 3.975693351829396e-16 -2.1866313435061676e-15 4.252340344792602 -34.14458491427097 -38.308412630306016 -15.192639099102808 18.120084399998753 36.2071560906729 -7.951386703658791e-16 1.4138293610941915e-32 -2.037542842812565e-15
-103.0 11.90000057220459 -40.29999923706055 -3.3837330451340497 8.033756993667062 16.961857003452014 -2.598536528751879e-07 5.6079387220290125e-08 13.971324069527716 86.7402456932213 25.416838131422672 -178.54912475420448 1.1729639115060805e-06 3.3622467914631083e-06 33.13340305804175 0.0 -1.5902773407317584e-15 0.0 -99.51407632771571 22.750347869691282 -174.2812526872634 4.2423978380750134e-07 -2.327801396092113e-07 -38.40683718436752 -7.156248033292914e-15 -3.1805546814635164e-15 -3.1805546814635168e-15 -2.31371795496503 -13.86936331671516 12.984827363523127 10.275815992999833 22.445394905883425 -56.33753098071463 -1.5902773407317582e-15 -3.379339349054986e-15 3.975693351829395e-16 3.2235640750280656 -36.6942854596248 -41.24422343005181 -15.990248683120882 16.865820994309992 34.06336905122559 0.0 0.0 -9.93923337957349e-17
-102.69999694824219 12.0 -43.0 -3.677191061809072 8.463135392302293 16.740794345623176 1.497245885315088e-07 -1.510554023820421e-07 14.529588497359232 87.20057200428464 22.084205463292363 -178.87590854710945 -5.747347668168692e-06 2.18991496175957e-06 35.74176228486401 7.951386703658792e-15 1.1034765745125397e-31 1.5902773407317584e-15 -99.52139181040997 23.4637803459755 -174.6706197246984 1.6389499322860595e-06 -4.1192110865119044e-06 -37.70138286776301 5.565970692561154e-15 -3.1805546814635168e-15 -3.1805546814635168e-15 -2.495015321730865 -14.241018498056606 13.416023223069462 9.049599704379773 19.67001083697074 -49.85852907343639 0.0 0.0 -4.075085685625131e-15 2.759830161609382 -38.24594775513458 -43.33551439363357 -16.18252086627295 15.391727592372366 31.125503897848947 3.9756933518293955e-16 -8.013506912281124e-16 -7.454425034680116e-17
-102.4000015258789 12.0 -45.599998474121094 -4.127595989013559 8.91190326210117 16.705770621590137 -2.503314055614803e-07 -1.0147481477945074e-06 14.563387467657964 87.85140031700034 18.835076777119028 -178.98653094104014 2.366694196433688e-06 -9.667952567863093e-07 37.6622931714115 1.0336802714756427e-14 -1.4345195468663017e-31 -1.590277340731758e-15 -99.30303945045506 23.41424496549826 -175.02987475649633 -7.946143266661403e-07 -1.1035011389601504e-06 -37.66940638194827 -6.758678698109972e-15 -3.1805546814635164e-15 -1.8759101766713175e-31 -2.48318713463215 -15.739242616404665 15.715637253325788 8.962156281357691 18.418109683032814 -46.847866042710685 3.1724951517235514e-32 -1.5902773407317584e-15 2.2860236773019026e-15 2.0315269183720037 -40.05923359941583 -45.91077552599274 -17.379754670949172 15.673026901482093 32.407218069061805 0.0 0.0 0.0
-102.10000610351562 11.800000190734863 -48.10000228881836 -4.2744826105753075 8.76647760923595 16.73105051482265 4.193129637610434e-07 -1.2288898433582783e-06 14.538689534839463 88.85278152677269 16.884253713872237 -179.64262155431922 1.2344221120538554e-06 1.4770130799383832e-06 39.225571448074966 7.156248033292914e-15 -9.931289170612858e-32 -1.5902773407317584e-15 -99.0518883423662 22.97638496288654 -174.82842344331073 2.7860328034586054e-06 -2.0966152248828664e-06 -38.15795813948267 1.5902773407317584e-15 3.1805546814635168e-15 -3.1805546814635168e-15 -3.167310172187825 -17.3901754039314 19.081678229580717 10.71152403307229 18.13606004039259 -47.15757422527571 0.0 0.0 -7.951386703658792e-16 0.8654542051349735 -41.31469557245388 -48.675830267086916 -20.62414554201703 18.37888196722172 40.126014842701274 -3.97370104347167e-35 6.212020862233431e-18 7.330184617435449e-16
